<?xml version="1.0" standalone="no"?>
<!DOCTYPE svg PUBLIC "-//W3C//DTD SVG 20010904//EN"
 "http://www.w3.org/TR/2001/REC-SVG-20010904/DTD/svg10.dtd">
<svg version="1.0" xmlns="http://www.w3.org/2000/svg"
 width="564.000000pt" height="564.000000pt" viewBox="0 0 564.000000 564.000000"
 preserveAspectRatio="xMidYMid meet">
<metadata>
Created by potrace 1.14, written by Peter Selinger 2001-2017
</metadata>
<g transform="translate(0.000000,564.000000) scale(0.100000,-0.100000)"
fill="#000000" stroke="none">
<path d="M3369 4104 c-155 -88 -277 -181 -350 -267 -110 -131 -218 -338 -296
-567 l-38 -114 -8 70 c-51 467 -148 629 -472 789 -149 74 -280 115 -367 115
-50 0 -63 -4 -84 -26 -36 -35 -28 -68 61 -249 119 -243 241 -413 422 -585 141
-136 236 -206 423 -314 l45 -26 -37 0 c-72 0 -91 -27 -38 -55 38 -20 75 -19
110 2 28 16 32 15 167 -30 316 -105 511 -141 778 -141 111 -1 231 5 287 13
l98 14 70 -54 c38 -29 70 -56 70 -61 0 -14 -92 -76 -190 -127 -278 -145 -583
-188 -805 -113 -205 69 -381 208 -452 356 -21 45 -38 47 -29 4 33 -158 40
-246 40 -513 1 -235 -2 -294 -17 -365 -22 -100 -62 -189 -111 -246 -33 -38
-123 -106 -160 -120 -22 -8 -41 35 -91 209 -92 321 -126 598 -91 737 30 120
70 186 178 291 55 54 95 100 89 103 -5 3 -65 -31 -133 -76 -222 -149 -389
-224 -604 -270 -99 -21 -134 -23 -384 -23 -298 0 -327 4 -315 48 14 51 77 165
112 204 l38 43 80 -12 c44 -7 184 -12 315 -11 257 0 427 19 607 68 217 58 270
125 175 220 -82 82 -179 115 -337 115 -290 0 -561 -101 -788 -294 -44 -37 -75
-56 -93 -56 -50 0 -258 52 -388 97 -177 62 -360 143 -613 274 -116 60 -216
109 -222 109 -34 0 13 -29 227 -137 368 -188 564 -267 804 -328 77 -19 150
-35 162 -35 37 0 36 -9 0 -58 -47 -61 -92 -151 -100 -200 -10 -66 -4 -67 336
-67 327 0 373 6 566 70 96 32 258 107 314 144 14 10 43 28 64 41 l39 24 -43
-55 c-53 -66 -96 -154 -111 -228 -18 -87 -5 -322 25 -466 54 -258 124 -478
159 -499 24 -15 94 23 169 93 68 62 119 158 144 266 30 135 28 722 -3 813 -3
9 24 -15 60 -54 104 -113 237 -196 392 -246 86 -28 291 -35 410 -14 128 22
262 69 397 138 135 69 201 120 196 151 -2 11 -31 42 -66 69 -35 27 -58 50 -50
52 7 2 45 12 83 21 187 47 422 143 725 296 214 108 676 362 700 385 37 36 -28
5 -249 -118 -568 -316 -924 -478 -1207 -547 l-91 -22 -62 39 c-180 117 -439
175 -781 176 -102 1 -205 -3 -229 -7 l-45 -8 89 63 c172 123 343 305 409 435
66 132 103 362 90 566 -8 117 -16 147 -42 147 -10 0 -70 -29 -133 -66z m150
-127 c7 -331 -54 -518 -233 -714 -109 -118 -309 -273 -404 -312 -18 -8 -32
-17 -32 -22 0 -11 -1 -11 95 5 132 23 271 29 415 16 306 -26 486 -73 630 -165
l45 -29 -35 -7 c-19 -5 -94 -13 -167 -19 -259 -21 -561 23 -870 125 -91 30
-169 55 -175 55 -5 0 -24 11 -41 23 -18 13 -63 41 -102 62 -338 184 -615 480
-809 867 -79 156 -93 218 -55 238 54 29 245 -18 411 -101 245 -123 354 -251
413 -484 26 -101 55 -305 55 -385 0 -87 24 -122 35 -52 31 180 162 492 277
659 61 88 179 202 275 266 123 82 247 147 258 136 5 -5 12 -78 14 -162z
m-1214 -881 c57 -18 142 -79 164 -117 21 -37 8 -72 -36 -96 -107 -59 -367
-111 -611 -121 -165 -8 -475 3 -499 16 -32 19 162 163 315 234 87 41 231 82
342 98 88 12 264 4 325 -14z m414 -202 c2 -2 -14 -4 -37 -4 -23 0 -42 5 -42
10 0 10 67 4 79 -6z"/>
</g>
</svg>
