<svg width="1920" height="1080" viewBox="0 0 1920 1080" fill="none" xmlns="http://www.w3.org/2000/svg">
<g clip-path="url(#clip0_337_2633)">
<rect width="1920" height="1080" fill="url(#paint0_linear_337_2633)" style="mix-blend-mode:multiply"/>
<g filter="url(#filter0_f_337_2633)">
<path fill-rule="evenodd" clip-rule="evenodd" d="M321.783 -223.813C380.7 -223.153 440.058 -262.537 494.259 -239.432C550.152 -215.605 583.27 -157.264 608.041 -101.783C632.67 -46.6186 637.285 13.5262 634.134 73.8565C630.726 139.12 629.088 208.89 589.118 260.594C548.396 313.272 481.924 338.208 417.321 354.321C354.571 369.971 289.095 369.806 227.266 350.841C165.922 332.025 107.385 299.347 69.4302 247.612C32.8477 197.747 32.8119 132.96 22.6646 71.9538C12.2715 9.46942 -13.8826 -54.8091 9.32495 -113.747C32.8739 -173.553 86.1833 -221.965 146.807 -243.32C203.304 -263.222 261.886 -224.483 321.783 -223.813Z" fill="url(#paint1_linear_337_2633)" style="mix-blend-mode:soft-light"/>
</g>
<g filter="url(#filter1_f_337_2633)">
<path fill-rule="evenodd" clip-rule="evenodd" d="M733.966 43.4381C801.166 45.2886 869.679 60.9557 922.518 102.516C973.177 142.361 993.579 206.578 1017.48 266.433C1040.29 323.552 1074.65 383.251 1058.29 442.54C1042.23 500.752 976.819 526.667 933.959 569.204C894.975 607.894 869.665 663.324 817.754 681.265C765.099 699.463 708.913 678.731 654.748 665.701C597.859 652.015 534.466 646.138 494.418 603.479C453.932 560.355 441.725 497.176 441.009 438.03C440.346 383.228 475.686 337.5 490.563 284.751C508.914 219.685 490.61 139.541 538.619 91.9445C587.25 43.7312 665.512 41.553 733.966 43.4381Z" fill="url(#paint2_linear_337_2633)"/>
</g>
<g filter="url(#filter2_f_337_2633)">
<path fill-rule="evenodd" clip-rule="evenodd" d="M1237.18 337.746C1390.66 369.878 1336.77 557.129 1440.29 644.478C1492.83 688.812 1596.73 672.332 1667.48 700.823C1759.13 737.728 1889.8 762.758 1915.48 835.828C1940.92 908.26 1853.78 980.13 1785.41 1036.5C1727.34 1084.38 1587.25 1070.41 1558.26 1130.35C1507.54 1235.25 1704.52 1391.69 1581.18 1458.84C1472.21 1518.16 1349.75 1360.91 1237.18 1305.16C1175.14 1274.43 1129.2 1231.47 1064.95 1203.17C1008.35 1178.23 924.844 1186.25 883.138 1149.19C841.455 1112.15 892.333 1045.96 848.107 1010.46C745.657 928.232 521.083 927.584 475.768 822.23C442.065 743.872 594.967 681.753 684.949 631.124C766.424 585.283 884.37 589.721 967.583 545.513C1074.94 488.48 1108.91 310.892 1237.18 337.746Z" fill="url(#paint3_linear_337_2633)"/>
</g>
<g filter="url(#filter3_f_337_2633)">
<path fill-rule="evenodd" clip-rule="evenodd" d="M2065 301.018C2117.15 371.468 2162.06 443.868 2202.56 521.624C2257.65 627.387 2368.97 734.959 2347.33 843.038C2326.27 948.192 2190.5 959.137 2104.9 1009.29C2035.3 1050.07 1965.43 1085.46 1888.62 1111.8C1809.87 1138.8 1730.45 1157.08 1646.17 1166.59C1539.6 1178.61 1428.78 1230.09 1325.37 1175.35C1223.95 1121.66 1153.92 1000.05 1117.81 886.887C1083.28 778.657 1155.99 674.936 1130.66 565.117C1102.66 443.742 914.247 327.932 965.826 227.933C1024.04 115.072 1230.8 242.432 1332.34 174.114C1407.24 123.715 1359.1 -39.2276 1435.15 -87.853C1507.04 -133.817 1613.91 -99.4511 1700.27 -61.138C1781.72 -25.0035 1839.91 55.3559 1906.1 121.081C1963.33 177.91 2016.6 235.625 2065 301.018Z" fill="url(#paint4_linear_337_2633)"/>
</g>
<g filter="url(#filter4_f_337_2633)">
<path fill-rule="evenodd" clip-rule="evenodd" d="M371.896 540.679C481.931 536.782 591.608 549.549 689.156 581.761C792.626 615.929 891.919 661.946 940.954 728.595C990.076 795.363 974.914 871.977 956.078 944.571C937.532 1016.05 914.054 1091.23 833.427 1142.99C754.503 1193.67 633.669 1200.15 525.735 1220.88C416.466 1241.86 309.628 1278.51 197.366 1265.14C80.654 1251.24 -21.1455 1204.41 -96.552 1146.76C-170.833 1089.97 -209.586 1018.5 -220.91 945.349C-231.894 874.39 -214.085 801.915 -159.615 739.365C-107.287 679.275 -16.8807 638.478 76.8274 603.449C167.908 569.402 266.073 544.427 371.896 540.679Z" fill="url(#paint5_linear_337_2633)"/>
</g>
</g>
<defs>
<filter id="filter0_f_337_2633" x="-60" y="-309" width="755.009" height="734.597" filterUnits="userSpaceOnUse" color-interpolation-filters="sRGB">
<feFlood flood-opacity="0" result="BackgroundImageFix"/>
<feBlend mode="normal" in="SourceGraphic" in2="BackgroundImageFix" result="shape"/>
<feGaussianBlur stdDeviation="30" result="effect1_foregroundBlur_337_2633"/>
</filter>
<filter id="filter1_f_337_2633" x="381" y="-17" width="741.556" height="765.419" filterUnits="userSpaceOnUse" color-interpolation-filters="sRGB">
<feFlood flood-opacity="0" result="BackgroundImageFix"/>
<feBlend mode="normal" in="SourceGraphic" in2="BackgroundImageFix" result="shape"/>
<feGaussianBlur stdDeviation="30" result="effect1_foregroundBlur_337_2633"/>
</filter>
<filter id="filter2_f_337_2633" x="411" y="275" width="1569" height="1257" filterUnits="userSpaceOnUse" color-interpolation-filters="sRGB">
<feFlood flood-opacity="0" result="BackgroundImageFix"/>
<feBlend mode="normal" in="SourceGraphic" in2="BackgroundImageFix" result="shape"/>
<feGaussianBlur stdDeviation="30" result="effect1_foregroundBlur_337_2633"/>
</filter>
<filter id="filter3_f_337_2633" x="896.933" y="-169.88" width="1513.15" height="1429.96" filterUnits="userSpaceOnUse" color-interpolation-filters="sRGB">
<feFlood flood-opacity="0" result="BackgroundImageFix"/>
<feBlend mode="normal" in="SourceGraphic" in2="BackgroundImageFix" result="shape"/>
<feGaussianBlur stdDeviation="30" result="effect1_foregroundBlur_337_2633"/>
</filter>
<filter id="filter4_f_337_2633" x="-284" y="480" width="1318" height="848" filterUnits="userSpaceOnUse" color-interpolation-filters="sRGB">
<feFlood flood-opacity="0" result="BackgroundImageFix"/>
<feBlend mode="normal" in="SourceGraphic" in2="BackgroundImageFix" result="shape"/>
<feGaussianBlur stdDeviation="30" result="effect1_foregroundBlur_337_2633"/>
</filter>
<linearGradient id="paint0_linear_337_2633" x1="960" y1="0" x2="960" y2="1080" gradientUnits="userSpaceOnUse">
<stop offset="0.788542" stop-color="#693C85"/>
<stop offset="0.944792" stop-color="#F88FCE"/>
</linearGradient>
<linearGradient id="paint1_linear_337_2633" x1="317.505" y1="-249" x2="317.505" y2="365.597" gradientUnits="userSpaceOnUse">
<stop stop-color="#A803E2"/>
<stop offset="0.466667" stop-color="#F204DD" stop-opacity="0.88"/>
<stop offset="0.982292" stop-color="#EC71CD" stop-opacity="0.73"/>
</linearGradient>
<linearGradient id="paint2_linear_337_2633" x1="770.425" y1="62.3626" x2="1072.01" y2="315.725" gradientUnits="userSpaceOnUse">
<stop stop-color="#EE778B"/>
<stop offset="0.298958" stop-color="#F06494" stop-opacity="0.7"/>
<stop offset="0.575" stop-color="#F2509E" stop-opacity="0.5"/>
<stop offset="0.757292" stop-color="#E545C7" stop-opacity="0.4"/>
<stop offset="1" stop-color="#D83AF0" stop-opacity="0.3"/>
</linearGradient>
<linearGradient id="paint3_linear_337_2633" x1="1195.5" y1="335" x2="1195.5" y2="1472" gradientUnits="userSpaceOnUse">
<stop stop-color="#E3F7BA" stop-opacity="0.8"/>
<stop offset="0.453125" stop-color="#EF7744" stop-opacity="0.85"/>
<stop offset="0.958333" stop-color="#C60000" stop-opacity="0.65"/>
</linearGradient>
<linearGradient id="paint4_linear_337_2633" x1="2066.34" y1="292.478" x2="1096.82" y2="892.16" gradientUnits="userSpaceOnUse">
<stop stop-color="#E3F7BA" stop-opacity="0.8"/>
<stop offset="0.453125" stop-color="#E144EF" stop-opacity="0.85"/>
<stop offset="0.958333" stop-color="#3E0751" stop-opacity="0.65"/>
</linearGradient>
<linearGradient id="paint5_linear_337_2633" x1="375" y1="533.6" x2="375" y2="1268" gradientUnits="userSpaceOnUse">
<stop stop-color="#D3B1E8"/>
<stop offset="0.439583" stop-color="#D3B1E8" stop-opacity="0.84"/>
<stop offset="1" stop-color="#6FBDEA" stop-opacity="0.84"/>
</linearGradient>
<clipPath id="clip0_337_2633">
<rect width="1920" height="1080" fill="white"/>
</clipPath>
</defs>
</svg>
