<svg width="1920" height="1080" viewBox="0 0 1920 1080" fill="none" xmlns="http://www.w3.org/2000/svg">
<g clip-path="url(#clip0_337_2632)">
<rect width="1920" height="1080" fill="url(#paint0_linear_337_2632)" style="mix-blend-mode:multiply"/>
<g filter="url(#filter0_f_337_2632)">
<path fill-rule="evenodd" clip-rule="evenodd" d="M1666.32 332.87C1743.74 327.876 1820.92 344.237 1889.56 385.521C1962.37 429.311 2032.24 488.285 2066.75 573.702C2101.31 659.272 2090.64 757.46 2077.39 850.495C2064.34 942.096 2047.82 1038.45 1991.08 1104.79C1935.55 1169.74 1850.52 1178.05 1774.57 1204.61C1697.68 1231.5 1622.5 1278.47 1543.5 1261.33C1461.38 1243.51 1389.74 1183.5 1336.68 1109.62C1284.41 1036.84 1257.14 945.243 1249.17 851.493C1241.45 760.552 1253.98 667.668 1292.31 587.505C1329.13 510.494 1392.74 458.209 1458.68 413.316C1522.77 369.682 1591.85 337.674 1666.32 332.87Z" fill="url(#paint1_linear_337_2632)"/>
</g>
<g filter="url(#filter1_f_337_2632)">
<path fill-rule="evenodd" clip-rule="evenodd" d="M482.179 315.746C635.659 347.878 581.766 535.129 685.287 622.478C737.83 666.812 841.728 650.332 912.481 678.823C1004.13 715.728 1134.8 740.758 1160.48 813.828C1185.92 886.26 1098.78 958.13 1030.41 1014.5C972.344 1062.38 832.251 1048.41 803.265 1108.35C752.537 1213.25 949.519 1369.69 826.175 1436.84C717.212 1496.16 594.75 1338.91 482.179 1283.16C420.136 1252.43 374.198 1209.47 309.95 1181.17C253.355 1156.23 169.844 1164.25 128.138 1127.19C86.4554 1090.15 137.333 1023.96 93.1074 988.459C-9.34299 906.232 -233.917 905.584 -279.232 800.23C-312.935 721.872 -160.033 659.753 -70.0509 609.124C11.4242 563.283 129.37 567.721 212.583 523.513C319.937 466.48 353.914 288.892 482.179 315.746Z" fill="url(#paint2_linear_337_2632)"/>
</g>
<g filter="url(#filter2_f_337_2632)">
<path fill-rule="evenodd" clip-rule="evenodd" d="M1093.45 406.605C1189.1 407.485 1285.48 354.939 1373.48 385.766C1464.23 417.556 1518 495.395 1558.21 569.418C1598.2 643.019 1605.69 723.264 1600.58 803.757C1595.05 890.833 1592.39 983.92 1527.49 1052.9C1461.37 1123.19 1353.45 1156.46 1248.56 1177.95C1146.68 1198.83 1040.37 1198.61 939.989 1173.31C840.391 1148.21 745.35 1104.61 683.727 1035.58C624.331 969.053 624.273 882.614 607.798 801.219C590.924 717.852 548.46 632.091 586.14 553.455C624.374 473.662 710.927 409.07 809.355 380.578C901.084 354.025 996.198 405.711 1093.45 406.605Z" fill="url(#paint3_linear_337_2632)" style="mix-blend-mode:soft-light"/>
</g>
<g filter="url(#filter3_f_337_2632)">
<path fill-rule="evenodd" clip-rule="evenodd" d="M903.388 743.717C849.383 790.012 792.077 828.196 728.92 860.829C643.015 905.215 567.156 1010.24 463.137 971.193C361.933 933.206 323.579 784.596 259.575 684.662C207.534 603.405 160.394 522.631 120.147 435.65C78.8839 346.475 45.517 257.833 19.2088 165.193C-14.0576 48.0514 -84.5377 -79.3883 -55.6725 -183.466C-27.3608 -285.547 70.0249 -343.825 166.696 -366.589C259.154 -388.36 369.795 -294.645 465.633 -306.219C571.555 -319.011 638.943 -506.328 741.757 -436.035C857.794 -356.702 783.593 -151.186 867.642 -31.3687C929.646 57.0224 1069.65 28.4191 1130.25 117.795C1187.55 202.278 1178.16 313.047 1160.87 401.034C1144.57 484.018 1082.7 535.428 1035.97 597.618C995.563 651.392 953.518 700.744 903.388 743.717Z" fill="url(#paint4_linear_337_2632)"/>
</g>
<g filter="url(#filter4_f_337_2632)">
<path fill-rule="evenodd" clip-rule="evenodd" d="M1399.76 9.43777C1500.63 11.2871 1603.48 26.9441 1682.79 68.4774C1758.84 108.297 1789.46 172.472 1825.34 232.288C1859.57 289.37 1911.15 349.03 1886.6 408.281C1862.49 466.455 1764.3 492.353 1699.97 534.863C1641.45 573.528 1603.46 628.922 1525.53 646.851C1446.5 665.037 1362.16 644.319 1280.85 631.297C1195.46 617.62 1100.3 611.747 1040.18 569.116C979.413 526.02 961.088 462.881 960.014 403.774C959.019 349.007 1012.07 303.309 1034.4 250.594C1061.94 185.571 1034.47 105.479 1106.53 57.9127C1179.53 9.73069 1297.01 7.55397 1399.76 9.43777Z" fill="url(#paint5_linear_337_2632)"/>
</g>
</g>
<defs>
<filter id="filter0_f_337_2632" x="1047" y="132" width="1243" height="1333" filterUnits="userSpaceOnUse" color-interpolation-filters="sRGB">
<feFlood flood-opacity="0" result="BackgroundImageFix"/>
<feBlend mode="normal" in="SourceGraphic" in2="BackgroundImageFix" result="shape"/>
<feGaussianBlur stdDeviation="100" result="effect1_foregroundBlur_337_2632"/>
</filter>
<filter id="filter1_f_337_2632" x="-484" y="113" width="1849" height="1537" filterUnits="userSpaceOnUse" color-interpolation-filters="sRGB">
<feFlood flood-opacity="0" result="BackgroundImageFix"/>
<feBlend mode="normal" in="SourceGraphic" in2="BackgroundImageFix" result="shape"/>
<feGaussianBlur stdDeviation="100" result="effect1_foregroundBlur_337_2632"/>
</filter>
<filter id="filter2_f_337_2632" x="371" y="173" width="1431" height="1220" filterUnits="userSpaceOnUse" color-interpolation-filters="sRGB">
<feFlood flood-opacity="0" result="BackgroundImageFix"/>
<feBlend mode="normal" in="SourceGraphic" in2="BackgroundImageFix" result="shape"/>
<feGaussianBlur stdDeviation="100" result="effect1_foregroundBlur_337_2632"/>
</filter>
<filter id="filter3_f_337_2632" x="-262.46" y="-651.766" width="1636.58" height="1831.5" filterUnits="userSpaceOnUse" color-interpolation-filters="sRGB">
<feFlood flood-opacity="0" result="BackgroundImageFix"/>
<feBlend mode="normal" in="SourceGraphic" in2="BackgroundImageFix" result="shape"/>
<feGaussianBlur stdDeviation="100" result="effect1_foregroundBlur_337_2632"/>
</filter>
<filter id="filter4_f_337_2632" x="760" y="-191" width="1333" height="1045" filterUnits="userSpaceOnUse" color-interpolation-filters="sRGB">
<feFlood flood-opacity="0" result="BackgroundImageFix"/>
<feBlend mode="normal" in="SourceGraphic" in2="BackgroundImageFix" result="shape"/>
<feGaussianBlur stdDeviation="100" result="effect1_foregroundBlur_337_2632"/>
</filter>
<linearGradient id="paint0_linear_337_2632" x1="960" y1="0" x2="960" y2="1080" gradientUnits="userSpaceOnUse">
<stop offset="0.788542" stop-color="#693C85"/>
<stop offset="0.944792" stop-color="#F88FCE"/>
</linearGradient>
<linearGradient id="paint1_linear_337_2632" x1="1668.5" y1="323.798" x2="1668.5" y2="1265" gradientUnits="userSpaceOnUse">
<stop stop-color="#D3B1E8"/>
<stop offset="0.439583" stop-color="#D3B1E8" stop-opacity="0.84"/>
<stop offset="1" stop-color="#6FBDEA" stop-opacity="0.84"/>
</linearGradient>
<linearGradient id="paint2_linear_337_2632" x1="440.5" y1="313" x2="440.5" y2="1450" gradientUnits="userSpaceOnUse">
<stop stop-color="#E3F7BA" stop-opacity="0.8"/>
<stop offset="0.453125" stop-color="#EF7744" stop-opacity="0.85"/>
<stop offset="0.958333" stop-color="#C60000" stop-opacity="0.65"/>
</linearGradient>
<linearGradient id="paint3_linear_337_2632" x1="1086.5" y1="373" x2="1086.5" y2="1193" gradientUnits="userSpaceOnUse">
<stop stop-color="#A803E2"/>
<stop offset="0.466667" stop-color="#F204DD" stop-opacity="0.88"/>
<stop offset="0.982292" stop-color="#EC71CD" stop-opacity="0.73"/>
</linearGradient>
<linearGradient id="paint4_linear_337_2632" x1="911.531" y1="746.401" x2="157.469" y2="-390.083" gradientUnits="userSpaceOnUse">
<stop stop-color="#E3F7BA" stop-opacity="0.8"/>
<stop offset="0.453125" stop-color="#E144EF" stop-opacity="0.85"/>
<stop offset="0.958333" stop-color="#3E0751" stop-opacity="0.65"/>
</linearGradient>
<linearGradient id="paint5_linear_337_2632" x1="1454.49" y1="28.35" x2="1752.38" y2="404.241" gradientUnits="userSpaceOnUse">
<stop stop-color="#EE778B"/>
<stop offset="0.298958" stop-color="#F06494" stop-opacity="0.7"/>
<stop offset="0.575" stop-color="#F2509E" stop-opacity="0.5"/>
<stop offset="0.757292" stop-color="#E545C7" stop-opacity="0.4"/>
<stop offset="1" stop-color="#D83AF0" stop-opacity="0.3"/>
</linearGradient>
<clipPath id="clip0_337_2632">
<rect width="1920" height="1080" fill="white"/>
</clipPath>
</defs>
</svg>
