<svg width="621" height="350" viewBox="0 0 621 350" fill="none" xmlns="http://www.w3.org/2000/svg">
<path d="M176.577 93.6266C156.202 84.4408 48.6942 93.6266 35.8254 161.267C22.9567 228.908 13.524 193 11.6965 217.217C9.86903 241.435 60.7586 243.94 26.9782 271.497C-6.80223 299.055 -31.7353 374.211 99.3648 324.942C230.465 275.673 117.059 271.497 176.577 271.497C176.577 271.497 314.916 246.445 339.849 299.055C364.782 351.664 495.078 349.994 495.078 349.994C495.078 349.994 465.319 234.754 578.725 271.497C692.131 308.24 538.51 105.318 528.859 161.267C519.207 217.217 322.959 93.6266 434.756 46.8625C546.553 0.0984335 458.081 46.8625 271.484 7.61408C84.8875 -31.6343 176.577 93.6266 176.577 93.6266Z" fill="url(#paint0_linear_270_465)" style="mix-blend-mode:darken"/>
<defs>
<linearGradient id="paint0_linear_270_465" x1="310.139" y1="0" x2="310.139" y2="350" gradientUnits="userSpaceOnUse">
<stop stop-color="#C988D9" stop-opacity="0"/>
<stop offset="0.101042" stop-color="#C988D9" stop-opacity="0.476386"/>
<stop offset="0.507292" stop-color="#C988D9"/>
<stop offset="0.871875" stop-color="#C988D9" stop-opacity="0.556025"/>
<stop offset="1" stop-color="#C988D9" stop-opacity="0"/>
</linearGradient>
</defs>
</svg>
